<svg width="177" height="87" viewBox="0 0 177 87" fill="none" xmlns="http://www.w3.org/2000/svg">
<path d="M0 24.6982L32.4429 10.5691L50.2699 18.5793L29.7855 26.2558L22.5882 18.5793L0 24.6982Z" fill="#FFBE2E"/>
<path d="M52.8166 17.6893L83.7093 0L81.1626 7.89898L52.8166 17.6893Z" fill="#FFBE2E"/>
<path d="M38.9758 66.9744L42.4083 71.0908L52.0415 53.7353L41.5225 38.9386L38.9758 28.3696L82.6021 15.1304L80.609 18.5793L47.2803 29.0371L78.173 22.5844L76.4014 26.2558L61.2318 29.9271L74.519 29.0371L73.4118 31.8184L52.8166 35.3785L56.4706 56.5166L48.0554 78.0997L54.2561 87L59.0173 56.5166L56.4706 37.6036L78.173 34.5997L96 4.78389L31.7785 27.3683L36.2076 41.3862L48.0554 55.8491L38.9758 66.9744Z" fill="#FFBE2E"/>
<path d="M87.5545 64.4153C87.5545 66.5452 87.5545 69.7401 87.5545 74C86.7006 74 85.4196 74 83.7117 74C83.7117 72.303 83.7117 69.7488 83.7117 66.3374C82.8578 66.3374 81.5681 66.3374 79.8428 66.3374C79.8428 68.0344 79.8428 70.5886 79.8428 74C78.9888 74 77.7079 74 76 74C76 71.8701 76 69.212 76 66.0257C76 62.8394 76 59.1164 76 54.8565C76.854 54.8565 78.1349 54.8565 79.8428 54.8565C79.8428 56.5535 79.8428 59.1077 79.8428 62.5191C80.0345 62.5191 80.3133 62.5191 80.6793 62.5191C81.3764 60.8047 82.4221 58.2505 83.8163 54.8565C84.7748 54.8565 86.2213 54.8565 88.1558 54.8565C87.3541 56.5535 86.1516 59.1077 84.5482 62.5191C84.7922 62.5191 85.1582 62.5191 85.6462 62.5191C86.169 62.5191 86.6221 62.7009 87.0055 63.0646C87.3715 63.4455 87.5545 63.8958 87.5545 64.4153Z" fill="#FFBE2E"/>
<path d="M104.248 56.7526C104.248 60.164 104.248 65.2724 104.248 72.0779C104.248 72.6147 104.065 73.0649 103.699 73.4286C103.316 73.8095 102.863 74 102.34 74C100.615 74 98.0442 74 94.6284 74C94.0881 74 93.635 73.8095 93.269 73.4286C92.8856 73.0649 92.6939 72.6147 92.6939 72.0779C92.6939 70.7964 92.6939 68.8743 92.6939 66.3114C92.6939 65.2551 92.6939 63.939 92.6939 62.3632C92.6939 60.7528 92.6939 58.8826 92.6939 56.7526C92.6939 56.2332 92.8856 55.7829 93.269 55.402C93.635 55.0383 94.0881 54.8565 94.6284 54.8565C96.3363 54.8565 98.9069 54.8565 102.34 54.8565C102.863 54.8565 103.316 55.0383 103.699 55.402C104.065 55.7829 104.248 56.2332 104.248 56.7526ZM96.5367 70.1817C97.4081 70.1817 98.6977 70.1817 100.406 70.1817C100.406 70.0085 100.406 69.7574 100.406 69.4284C100.406 67.0387 100.406 63.4542 100.406 58.6748C99.5517 58.6748 98.262 58.6748 96.5367 58.6748C96.5367 59.9562 96.5367 61.8697 96.5367 64.4153C96.5367 65.6967 96.5367 67.6188 96.5367 70.1817Z" fill="#FFBE2E"/>
<path d="M112.629 70.1817C112.629 67.6188 112.629 62.5104 112.629 54.8565C112.002 54.8565 110.721 54.8565 108.787 54.8565C108.787 56.4496 108.787 58.8393 108.787 62.0256C108.787 65.2118 108.787 69.2033 108.787 74C108.943 74 109.266 74 109.754 74C110.242 74 111.2 74 112.629 74C113.919 74 116.49 74 120.341 74C120.341 73.3593 120.341 72.0865 120.341 70.1817C118.633 70.1817 116.063 70.1817 112.629 70.1817Z" fill="#FFBE2E"/>
<path d="M124.879 54.8565C125.524 54.8565 126.805 54.8565 128.722 54.8565C128.722 57.2462 128.722 62.0342 128.722 69.2206C128.722 70.0172 128.722 71.6103 128.722 74C128.095 74 126.814 74 124.879 74C124.879 72.4069 124.879 70.0172 124.879 66.8309C124.879 63.6447 124.879 59.6532 124.879 54.8565Z" fill="#FFBE2E"/>
<path d="M142.906 64.4153C143.429 64.4153 143.882 64.6057 144.266 64.9867C144.632 65.3503 144.815 65.8006 144.815 66.3374C144.815 67.6188 144.815 69.5323 144.815 72.0779C144.815 72.6147 144.632 73.0649 144.266 73.4286C143.882 73.8095 143.429 74 142.906 74C141.617 74 139.682 74 137.103 74C136.249 74 134.968 74 133.26 74C133.26 73.1515 133.26 71.8787 133.26 70.1817C133.26 69.3159 133.26 68.0344 133.26 66.3374C133.26 65.4889 133.26 64.2161 133.26 62.5191C133.26 62.0862 133.26 61.5494 133.26 60.9086C133.26 60.2679 133.26 59.5233 133.26 58.6748C133.26 57.8263 133.26 56.5535 133.26 54.8565C134.114 54.8565 135.395 54.8565 137.103 54.8565C138.393 54.8565 140.327 54.8565 142.906 54.8565C143.429 54.8565 143.882 55.0383 144.266 55.402C144.632 55.7829 144.815 56.2332 144.815 56.7526C144.815 58.0341 144.815 59.9562 144.815 62.5191C144.815 63.0386 144.632 63.4888 144.266 63.8698C143.882 64.2334 143.429 64.4153 142.906 64.4153ZM137.103 62.5191C137.974 62.5191 139.264 62.5191 140.972 62.5191C140.972 62.3632 140.972 62.1381 140.972 61.8437C140.972 61.1338 140.972 60.0774 140.972 58.6748C140.118 58.6748 138.828 58.6748 137.103 58.6748C137.103 59.5233 137.103 60.8047 137.103 62.5191ZM137.103 70.1817C137.974 70.1817 139.264 70.1817 140.972 70.1817C140.972 70.0258 140.972 69.8007 140.972 69.5063C140.972 68.7964 140.972 67.74 140.972 66.3374C140.118 66.3374 138.828 66.3374 137.103 66.3374C137.103 67.1859 137.103 68.4673 137.103 70.1817Z" fill="#FFBE2E"/>
<path d="M160.907 58.6748C160.907 58.0341 160.907 56.7613 160.907 54.8565C159.635 54.8565 157.065 54.8565 153.196 54.8565C152.568 54.8565 151.287 54.8565 149.353 54.8565C149.353 55.4972 149.353 56.77 149.353 58.6748C149.353 59.3155 149.353 60.5969 149.353 62.5191C149.353 63.1425 149.353 64.4153 149.353 66.3374C149.353 66.9781 149.353 68.2595 149.353 70.1817C149.353 70.5973 149.353 71.1254 149.353 71.7662C149.353 72.4069 149.353 73.1515 149.353 74C150.207 74 151.488 74 153.196 74C154.921 74 157.492 74 160.907 74C160.907 73.1515 160.907 71.8787 160.907 70.1817C159.199 70.1817 156.629 70.1817 153.196 70.1817C153.196 69.3159 153.196 68.0344 153.196 66.3374C154.485 66.3374 156.42 66.3374 158.999 66.3374C158.999 65.4889 158.999 64.2161 158.999 62.5191C157.709 62.5191 155.775 62.5191 153.196 62.5191C153.196 61.6533 153.196 60.3718 153.196 58.6748C154.921 58.6748 157.492 58.6748 160.907 58.6748Z" fill="#FFBE2E"/>
<path d="M175.092 64.4153C175.615 64.4153 176.068 64.6057 176.451 64.9867C176.817 65.3503 177 65.8006 177 66.3374C177 68.0344 177 70.5886 177 74C176.146 74 174.865 74 173.157 74C173.157 72.303 173.157 69.7488 173.157 66.3374C172.303 66.3374 171.014 66.3374 169.288 66.3374C169.288 68.0344 169.288 70.5886 169.288 74C168.434 74 167.153 74 165.445 74C165.445 72.303 165.445 69.7488 165.445 66.3374C165.445 65.4889 165.445 64.2161 165.445 62.5191C165.445 61.6706 165.445 60.6056 165.445 59.3242C165.445 58.0427 165.445 56.5535 165.445 54.8565C166.299 54.8565 167.58 54.8565 169.288 54.8565C170.578 54.8565 172.512 54.8565 175.092 54.8565C175.615 54.8565 176.068 55.0383 176.451 55.402C176.817 55.7829 177 56.2332 177 56.7526C177 58.0341 177 59.9562 177 62.5191C177 63.0386 176.817 63.4888 176.451 63.8698C176.068 64.2334 175.615 64.4153 175.092 64.4153ZM173.157 62.5191C173.157 62.3632 173.157 62.1381 173.157 61.8437C173.157 61.1338 173.157 60.0774 173.157 58.6748C172.303 58.6748 171.014 58.6748 169.288 58.6748C169.288 59.5233 169.288 60.8047 169.288 62.5191C170.16 62.5191 171.449 62.5191 173.157 62.5191Z" fill="#FFBE2E"/>
<path d="M80.6218 44.7585C80.6218 45.4442 80.6218 46.4659 80.6218 47.8235C80.6218 48.0382 80.5486 48.2218 80.4022 48.3742C80.2489 48.5196 80.0676 48.5924 79.8585 48.5924C79.3426 48.5924 78.5688 48.5924 77.5371 48.5924C77.5371 49.2712 77.5371 50.2929 77.5371 51.6574C77.1955 51.6574 76.6832 51.6574 76 51.6574C76 51.318 76 50.892 76 50.3794C76 49.8738 76 49.2781 76 48.5924C76 48.253 76 47.7439 76 47.065C76 46.7187 76 46.2061 76 45.5273C76 45.1879 76 44.6788 76 44C76.3416 44 76.854 44 77.5371 44C78.053 44 78.8268 44 79.8585 44C80.0676 44 80.2489 44.0727 80.4022 44.2182C80.5486 44.3706 80.6218 44.5507 80.6218 44.7585ZM77.5371 47.065C77.8857 47.065 78.4015 47.065 79.0847 47.065C79.0847 47.0027 79.0847 46.9127 79.0847 46.7949C79.0847 46.5109 79.0847 46.0884 79.0847 45.5273C78.7431 45.5273 78.2272 45.5273 77.5371 45.5273C77.5371 45.8667 77.5371 46.3793 77.5371 47.065Z" fill="#FFBE2E"/>
<path d="M86.7912 44.7585C86.7912 46.123 86.7912 48.1664 86.7912 50.8885C86.7912 51.1033 86.718 51.2834 86.5716 51.4288C86.4182 51.5812 86.237 51.6574 86.0278 51.6574C85.3377 51.6574 84.3095 51.6574 82.9432 51.6574C82.7271 51.6574 82.5458 51.5812 82.3994 51.4288C82.2461 51.2834 82.1694 51.1033 82.1694 50.8885C82.1694 50.376 82.1694 49.6071 82.1694 48.582C82.1694 48.1595 82.1694 47.633 82.1694 47.0027C82.1694 46.3585 82.1694 45.6104 82.1694 44.7585C82.1694 44.5507 82.2461 44.3706 82.3994 44.2182C82.5458 44.0727 82.7271 44 82.9432 44C83.6263 44 84.6546 44 86.0278 44C86.237 44 86.4182 44.0727 86.5716 44.2182C86.718 44.3706 86.7912 44.5507 86.7912 44.7585ZM83.7065 50.1301C84.055 50.1301 84.5709 50.1301 85.2541 50.1301C85.2541 50.0608 85.2541 49.9604 85.2541 49.8288C85.2541 48.8729 85.2541 47.4391 85.2541 45.5273C84.9125 45.5273 84.3966 45.5273 83.7065 45.5273C83.7065 46.0399 83.7065 46.8053 83.7065 47.8235C83.7065 48.3361 83.7065 49.1049 83.7065 50.1301Z" fill="#FFBE2E"/>
<path d="M96.0452 44.7585C96.0452 46.2962 96.0452 48.5958 96.0452 51.6574C95.7037 51.6574 95.1913 51.6574 94.5081 51.6574C94.5081 50.2929 94.5081 48.2495 94.5081 45.5273C94.1665 45.5273 93.6507 45.5273 92.9606 45.5273C92.9606 46.8919 92.9606 48.9352 92.9606 51.6574C92.619 51.6574 92.1066 51.6574 91.4234 51.6574C91.4234 50.2929 91.4234 48.2495 91.4234 45.5273C91.0819 45.5273 90.566 45.5273 89.8759 45.5273C89.8759 46.8919 89.8759 48.9352 89.8759 51.6574C89.5343 51.6574 89.0219 51.6574 88.3388 51.6574C88.3388 51.0825 88.3388 50.2167 88.3388 49.0599C88.3388 48.582 88.3388 47.9863 88.3388 47.2728C88.3388 46.5525 88.3388 45.7143 88.3388 44.7585C88.3388 44.5507 88.4154 44.3706 88.5688 44.2182C88.7152 44.0727 88.8964 44 89.1125 44C89.6214 44 90.3917 44 91.4234 44C91.6395 44 91.8208 44.0727 91.9672 44.2182C92.1205 44.3706 92.1972 44.5507 92.1972 44.7585C92.1972 44.5507 92.2704 44.3706 92.4168 44.2182C92.5702 44.0727 92.7514 44 92.9606 44C93.4764 44 94.2502 44 95.2819 44C95.491 44 95.6723 44.0727 95.8257 44.2182C95.972 44.3706 96.0452 44.5507 96.0452 44.7585Z" fill="#FFBE2E"/>
<path d="M102.215 44.7585C102.215 46.123 102.215 48.1664 102.215 50.8885C102.215 51.1033 102.141 51.2834 101.995 51.4288C101.842 51.5812 101.66 51.6574 101.451 51.6574C100.761 51.6574 99.7329 51.6574 98.3666 51.6574C98.1505 51.6574 97.9693 51.5812 97.8229 51.4288C97.6695 51.2834 97.5928 51.1033 97.5928 50.8885C97.5928 50.376 97.5928 49.6071 97.5928 48.582C97.5928 48.1595 97.5928 47.633 97.5928 47.0027C97.5928 46.3585 97.5928 45.6104 97.5928 44.7585C97.5928 44.5507 97.6695 44.3706 97.8229 44.2182C97.9693 44.0727 98.1505 44 98.3666 44C99.0498 44 100.078 44 101.451 44C101.66 44 101.842 44.0727 101.995 44.2182C102.141 44.3706 102.215 44.5507 102.215 44.7585ZM99.1299 50.1301C99.4785 50.1301 99.9943 50.1301 100.678 50.1301C100.678 50.0608 100.678 49.9604 100.678 49.8288C100.678 48.8729 100.678 47.4391 100.678 45.5273C100.336 45.5273 99.8201 45.5273 99.1299 45.5273C99.1299 46.0399 99.1299 46.8053 99.1299 47.8235C99.1299 48.3361 99.1299 49.1049 99.1299 50.1301Z" fill="#FFBE2E"/>
<path d="M106.847 46.2962C106.847 46.123 106.847 45.8667 106.847 45.5273C106.505 45.5273 105.989 45.5273 105.299 45.5273C105.299 46.5525 105.299 48.0867 105.299 50.1301C105.648 50.1301 106.164 50.1301 106.847 50.1301C106.847 49.9569 106.847 49.7006 106.847 49.3612C107.188 49.3612 107.701 49.3612 108.384 49.3612C108.384 49.7006 108.384 50.2097 108.384 50.8885C108.384 51.1033 108.311 51.2834 108.164 51.4288C108.011 51.5812 107.83 51.6574 107.621 51.6574C106.931 51.6574 105.902 51.6574 104.536 51.6574C104.32 51.6574 104.139 51.5812 103.992 51.4288C103.839 51.2834 103.762 51.1033 103.762 50.8885C103.762 50.376 103.762 49.6071 103.762 48.582C103.762 48.1595 103.762 47.633 103.762 47.0027C103.762 46.3585 103.762 45.6104 103.762 44.7585C103.762 44.5507 103.839 44.3706 103.992 44.2182C104.139 44.0727 104.32 44 104.536 44C105.219 44 106.247 44 107.621 44C107.83 44 108.011 44.0727 108.164 44.2182C108.311 44.3706 108.384 44.5507 108.384 44.7585C108.384 45.1048 108.384 45.6174 108.384 46.2962C108.042 46.2962 107.53 46.2962 106.847 46.2962Z" fill="#FFBE2E"/>
<path d="M120.723 44.7585C120.723 46.123 120.723 48.1664 120.723 50.8885C120.723 51.1033 120.65 51.2834 120.503 51.4288C120.35 51.5812 120.169 51.6574 119.959 51.6574C119.444 51.6574 118.67 51.6574 117.638 51.6574C117.471 51.6574 117.216 51.6574 116.875 51.6574C116.7 51.6574 116.443 51.6574 116.101 51.6574C116.101 50.8054 116.101 49.7422 116.101 48.4677C116.101 47.1932 116.101 45.704 116.101 44C116.401 44 116.85 44 117.45 44C117.492 44 117.554 44 117.638 44C118.154 44 118.928 44 119.959 44C120.169 44 120.35 44.0727 120.503 44.2182C120.65 44.3706 120.723 44.5507 120.723 44.7585ZM117.638 50.1301C117.987 50.1301 118.502 50.1301 119.186 50.1301C119.186 50.0608 119.186 49.9604 119.186 49.8288C119.186 48.8729 119.186 47.4391 119.186 45.5273C118.844 45.5273 118.328 45.5273 117.638 45.5273C117.638 46.0399 117.638 46.8053 117.638 47.8235C117.638 48.3361 117.638 49.1049 117.638 50.1301Z" fill="#FFBE2E"/>
<path d="M126.129 47.8235C126.338 47.8235 126.519 47.8997 126.673 48.0521C126.819 48.1975 126.892 48.3776 126.892 48.5924C126.892 49.2712 126.892 50.2929 126.892 51.6574C126.551 51.6574 126.038 51.6574 125.355 51.6574C125.355 50.9786 125.355 49.9569 125.355 48.5924C125.013 48.5924 124.498 48.5924 123.807 48.5924C123.807 49.2712 123.807 50.2929 123.807 51.6574C123.466 51.6574 122.953 51.6574 122.27 51.6574C122.27 50.9786 122.27 49.9569 122.27 48.5924C122.27 48.253 122.27 47.7439 122.27 47.065C122.27 46.7256 122.27 46.2996 122.27 45.7871C122.27 45.2745 122.27 44.6788 122.27 44C122.612 44 123.124 44 123.807 44C124.323 44 125.097 44 126.129 44C126.338 44 126.519 44.0727 126.673 44.2182C126.819 44.3706 126.892 44.5507 126.892 44.7585C126.892 45.271 126.892 46.0399 126.892 47.065C126.892 47.2728 126.819 47.4529 126.673 47.6053C126.519 47.7508 126.338 47.8235 126.129 47.8235ZM125.355 47.065C125.355 47.0027 125.355 46.9127 125.355 46.7949C125.355 46.5109 125.355 46.0884 125.355 45.5273C125.013 45.5273 124.498 45.5273 123.807 45.5273C123.807 45.8667 123.807 46.3793 123.807 47.065C124.156 47.065 124.672 47.065 125.355 47.065Z" fill="#FFBE2E"/>
<path d="M133.061 44.7585C133.061 46.123 133.061 48.1664 133.061 50.8885C133.061 51.1033 132.988 51.2834 132.842 51.4288C132.689 51.5812 132.507 51.6574 132.298 51.6574C131.608 51.6574 130.58 51.6574 129.213 51.6574C128.997 51.6574 128.816 51.5812 128.67 51.4288C128.516 51.2834 128.44 51.1033 128.44 50.8885C128.44 50.376 128.44 49.6071 128.44 48.582C128.44 48.1595 128.44 47.633 128.44 47.0027C128.44 46.3585 128.44 45.6104 128.44 44.7585C128.44 44.5507 128.516 44.3706 128.67 44.2182C128.816 44.0727 128.997 44 129.213 44C129.897 44 130.925 44 132.298 44C132.507 44 132.689 44.0727 132.842 44.2182C132.988 44.3706 133.061 44.5507 133.061 44.7585ZM129.977 50.1301C130.325 50.1301 130.841 50.1301 131.524 50.1301C131.524 50.0608 131.524 49.9604 131.524 49.8288C131.524 48.8729 131.524 47.4391 131.524 45.5273C131.183 45.5273 130.667 45.5273 129.977 45.5273C129.977 46.0399 129.977 46.8053 129.977 47.8235C129.977 48.3361 129.977 49.1049 129.977 50.1301Z" fill="#FFBE2E"/>
<path d="M137.694 46.2962C137.694 46.123 137.694 45.8667 137.694 45.5273C137.352 45.5273 136.836 45.5273 136.146 45.5273C136.146 46.5525 136.146 48.0867 136.146 50.1301C136.495 50.1301 137.011 50.1301 137.694 50.1301C137.694 49.7837 137.694 49.2712 137.694 48.5924C137.519 48.5924 137.262 48.5924 136.92 48.5924C136.92 48.253 136.92 47.7439 136.92 47.065C137.436 47.065 138.206 47.065 139.231 47.065C139.231 47.4044 139.231 47.9136 139.231 48.5924C139.231 49.1049 139.231 49.8703 139.231 50.8885C139.231 51.1033 139.158 51.2834 139.011 51.4288C138.858 51.5812 138.677 51.6574 138.468 51.6574C137.777 51.6574 136.749 51.6574 135.383 51.6574C135.167 51.6574 134.986 51.5812 134.839 51.4288C134.686 51.2834 134.609 51.1033 134.609 50.8885C134.609 50.376 134.609 49.6071 134.609 48.582C134.609 48.1595 134.609 47.633 134.609 47.0027C134.609 46.3585 134.609 45.6104 134.609 44.7585C134.609 44.5507 134.686 44.3706 134.839 44.2182C134.986 44.0727 135.167 44 135.383 44C136.066 44 137.094 44 138.468 44C138.677 44 138.858 44.0727 139.011 44.2182C139.158 44.3706 139.231 44.5507 139.231 44.7585C139.231 45.1048 139.231 45.6174 139.231 46.2962C138.889 46.2962 138.377 46.2962 137.694 46.2962Z" fill="#FFBE2E"/>
<path d="M145.4 44.7585C145.4 46.123 145.4 48.1664 145.4 50.8885C145.4 51.1033 145.327 51.2834 145.181 51.4288C145.027 51.5812 144.846 51.6574 144.637 51.6574C143.947 51.6574 142.919 51.6574 141.552 51.6574C141.336 51.6574 141.155 51.5812 141.008 51.4288C140.855 51.2834 140.778 51.1033 140.778 50.8885C140.778 50.376 140.778 49.6071 140.778 48.582C140.778 48.1595 140.778 47.633 140.778 47.0027C140.778 46.3585 140.778 45.6104 140.778 44.7585C140.778 44.5507 140.855 44.3706 141.008 44.2182C141.155 44.0727 141.336 44 141.552 44C142.235 44 143.264 44 144.637 44C144.846 44 145.027 44.0727 145.181 44.2182C145.327 44.3706 145.4 44.5507 145.4 44.7585ZM142.316 50.1301C142.664 50.1301 143.18 50.1301 143.863 50.1301C143.863 50.0608 143.863 49.9604 143.863 49.8288C143.863 48.8729 143.863 47.4391 143.863 45.5273C143.522 45.5273 143.006 45.5273 142.316 45.5273C142.316 46.0399 142.316 46.8053 142.316 47.8235C142.316 48.3361 142.316 49.1049 142.316 50.1301Z" fill="#FFBE2E"/>
<path d="M146.948 50.8885C146.948 50.1266 146.948 49.1707 146.948 48.0209C146.948 46.8711 146.948 45.5308 146.948 44C147.289 44 147.802 44 148.485 44C148.485 45.3576 148.485 47.401 148.485 50.1301C148.833 50.1301 149.349 50.1301 150.033 50.1301C150.033 48.7655 150.033 46.7222 150.033 44C150.374 44 150.886 44 151.57 44C151.57 45.3576 151.57 47.401 151.57 50.1301C151.918 50.1301 152.434 50.1301 153.117 50.1301C153.117 48.7655 153.117 46.7222 153.117 44C153.459 44 153.971 44 154.654 44C154.654 45.5308 154.654 47.827 154.654 50.8885C154.654 51.1033 154.581 51.2834 154.435 51.4288C154.281 51.5812 154.1 51.6574 153.891 51.6574C153.375 51.6574 152.601 51.6574 151.57 51.6574C151.36 51.6574 151.179 51.5812 151.026 51.4288C150.879 51.2834 150.806 51.1033 150.806 50.8885C150.806 51.1033 150.73 51.2834 150.576 51.4288C150.43 51.5812 150.249 51.6574 150.033 51.6574C149.517 51.6574 148.746 51.6574 147.722 51.6574C147.506 51.6574 147.324 51.5812 147.178 51.4288C147.024 51.2834 146.948 51.1033 146.948 50.8885Z" fill="#FFBE2E"/>
<path d="M160.824 51.6574C160.482 51.6574 159.97 51.6574 159.287 51.6574C159.287 50.9786 159.287 49.9569 159.287 48.5924C158.945 48.5924 158.429 48.5924 157.739 48.5924C157.739 49.2712 157.739 50.2929 157.739 51.6574C157.397 51.6574 156.885 51.6574 156.202 51.6574C156.202 51.0825 156.202 50.2167 156.202 49.0599C156.202 48.582 156.202 47.9863 156.202 47.2728C156.202 46.5525 156.202 45.7143 156.202 44.7585C156.202 44.5507 156.279 44.3706 156.432 44.2182C156.578 44.0727 156.76 44 156.976 44C157.659 44 158.687 44 160.06 44C160.269 44 160.451 44.0727 160.604 44.2182C160.75 44.3706 160.824 44.5507 160.824 44.7585C160.824 46.2962 160.824 48.5958 160.824 51.6574ZM159.287 47.065C159.287 47.0027 159.287 46.9127 159.287 46.7949C159.287 46.5109 159.287 46.0884 159.287 45.5273C158.945 45.5273 158.429 45.5273 157.739 45.5273C157.739 45.8667 157.739 46.3793 157.739 47.065C158.088 47.065 158.603 47.065 159.287 47.065Z" fill="#FFBE2E"/>
</svg>
